<?xml version="1.0" encoding="utf-8"?>
<svg xmlns="http://www.w3.org/2000/svg" xmlns:xlink="http://www.w3.org/1999/xlink" style="margin: auto; background: rgb(241, 242, 243); display: block; shape-rendering: auto;" width="200px" height="200px" viewBox="0 0 100 100" preserveAspectRatio="xMidYMid">
<g transform="rotate(0 50 50)">
  <rect x="45" y="23" rx="2.88" ry="2.88" width="10" height="24" fill="#61963f">
    <animate attributeName="opacity" values="1;0" keyTimes="0;1" dur="1.1627906976744184s" begin="-1.0797342192691028s" repeatCount="indefinite"></animate>
  </rect>
</g><g transform="rotate(25.714285714285715 50 50)">
  <rect x="45" y="23" rx="2.88" ry="2.88" width="10" height="24" fill="#61963f">
    <animate attributeName="opacity" values="1;0" keyTimes="0;1" dur="1.1627906976744184s" begin="-0.9966777408637874s" repeatCount="indefinite"></animate>
  </rect>
</g><g transform="rotate(51.42857142857143 50 50)">
  <rect x="45" y="23" rx="2.88" ry="2.88" width="10" height="24" fill="#61963f">
    <animate attributeName="opacity" values="1;0" keyTimes="0;1" dur="1.1627906976744184s" begin="-0.9136212624584716s" repeatCount="indefinite"></animate>
  </rect>
</g><g transform="rotate(77.14285714285714 50 50)">
  <rect x="45" y="23" rx="2.88" ry="2.88" width="10" height="24" fill="#61963f">
    <animate attributeName="opacity" values="1;0" keyTimes="0;1" dur="1.1627906976744184s" begin="-0.830564784053156s" repeatCount="indefinite"></animate>
  </rect>
</g><g transform="rotate(102.85714285714286 50 50)">
  <rect x="45" y="23" rx="2.88" ry="2.88" width="10" height="24" fill="#61963f">
    <animate attributeName="opacity" values="1;0" keyTimes="0;1" dur="1.1627906976744184s" begin="-0.7475083056478404s" repeatCount="indefinite"></animate>
  </rect>
</g><g transform="rotate(128.57142857142858 50 50)">
  <rect x="45" y="23" rx="2.88" ry="2.88" width="10" height="24" fill="#61963f">
    <animate attributeName="opacity" values="1;0" keyTimes="0;1" dur="1.1627906976744184s" begin="-0.6644518272425248s" repeatCount="indefinite"></animate>
  </rect>
</g><g transform="rotate(154.28571428571428 50 50)">
  <rect x="45" y="23" rx="2.88" ry="2.88" width="10" height="24" fill="#61963f">
    <animate attributeName="opacity" values="1;0" keyTimes="0;1" dur="1.1627906976744184s" begin="-0.5813953488372092s" repeatCount="indefinite"></animate>
  </rect>
</g><g transform="rotate(180 50 50)">
  <rect x="45" y="23" rx="2.88" ry="2.88" width="10" height="24" fill="#61963f">
    <animate attributeName="opacity" values="1;0" keyTimes="0;1" dur="1.1627906976744184s" begin="-0.4983388704318937s" repeatCount="indefinite"></animate>
  </rect>
</g><g transform="rotate(205.71428571428572 50 50)">
  <rect x="45" y="23" rx="2.88" ry="2.88" width="10" height="24" fill="#61963f">
    <animate attributeName="opacity" values="1;0" keyTimes="0;1" dur="1.1627906976744184s" begin="-0.415282392026578s" repeatCount="indefinite"></animate>
  </rect>
</g><g transform="rotate(231.42857142857142 50 50)">
  <rect x="45" y="23" rx="2.88" ry="2.88" width="10" height="24" fill="#61963f">
    <animate attributeName="opacity" values="1;0" keyTimes="0;1" dur="1.1627906976744184s" begin="-0.3322259136212624s" repeatCount="indefinite"></animate>
  </rect>
</g><g transform="rotate(257.14285714285717 50 50)">
  <rect x="45" y="23" rx="2.88" ry="2.88" width="10" height="24" fill="#61963f">
    <animate attributeName="opacity" values="1;0" keyTimes="0;1" dur="1.1627906976744184s" begin="-0.24916943521594684s" repeatCount="indefinite"></animate>
  </rect>
</g><g transform="rotate(282.85714285714283 50 50)">
  <rect x="45" y="23" rx="2.88" ry="2.88" width="10" height="24" fill="#61963f">
    <animate attributeName="opacity" values="1;0" keyTimes="0;1" dur="1.1627906976744184s" begin="-0.1661129568106312s" repeatCount="indefinite"></animate>
  </rect>
</g><g transform="rotate(308.57142857142856 50 50)">
  <rect x="45" y="23" rx="2.88" ry="2.88" width="10" height="24" fill="#61963f">
    <animate attributeName="opacity" values="1;0" keyTimes="0;1" dur="1.1627906976744184s" begin="-0.0830564784053156s" repeatCount="indefinite"></animate>
  </rect>
</g><g transform="rotate(334.2857142857143 50 50)">
  <rect x="45" y="23" rx="2.88" ry="2.88" width="10" height="24" fill="#61963f">
    <animate attributeName="opacity" values="1;0" keyTimes="0;1" dur="1.1627906976744184s" begin="0s" repeatCount="indefinite"></animate>
  </rect>
</g>
<!-- [ldio] generated by https://loading.io/ --></svg>